<svg version="1.2" xmlns="http://www.w3.org/2000/svg" viewBox="0 0 512 512" width="512" height="512">
	<title>RedLogoGit</title>
	<style>
		.s0 { fill: #ff0000 } 
	</style>
	<g id="Layer 1">
		<path id="Path 1" fill-rule="evenodd" class="s0" d="m30.79 47.41c-1.6 11.88 0.11 39.61 5.07 53.62l7.09 19.95c-15.51 15.95-28.42 47.83-31.13 57.64-2.61 9.41-6.56 21.28-7.63 26.6-1.06 5.32-1.77 19.68-1.77 31.91 0 12.77 1.24 28.55 3.01 37.24 1.6 8.33 4.97 21.1 7.63 28.37 2.48 7.27 8.15 19.68 12.59 27.3 4.43 7.63 13.12 19.51 19.5 26.42 6.38 6.74 16.31 15.78 22.16 20.04 5.85 4.08 17.38 10.81 25.71 14.71 8.34 3.9 23.58 9.4 34.05 12.06l18.97 4.97c-5.14 8.15-7.98 15.42-9.4 21.27-1.6 5.85-2.84 13.3-2.84 16.31v5.86c-18.79 0-27.48-1.42-34.93-4.08-8.33-2.84-15.24-6.92-23.93-14.19-6.56-5.49-16.31-12.76-21.46-16.13-4.96-3.19-14-7.63-19.86-9.75-5.85-2.31-14.71-4.79-19.5-5.68-7.09-1.24-9.57-1.06-12.06 1.07-2.48 2.3-2.66 3.36-0.88 7.27 1.24 2.48 7.09 7.62 12.94 11.34 5.85 3.9 13.48 9.93 17.02 13.66 3.55 3.72 9.58 13.12 13.3 20.74 3.9 7.8 10.46 18.09 14.89 22.87 4.44 4.97 11.17 11 15.08 13.66 3.9 2.83 13.12 6.91 20.39 9.39 7.27 2.49 21.1 5.32 30.49 6.39 11 1.24 21.81 2.3 47.17 1.95l30.49-0.54v-151.06c-40.05 2.64-68.78-9.06-68.78-9.06 0 0-126.93-44.05-69.5-172.7 17.73-39.71 32.62-44.68 32.62-44.68-32.62-30.5-25.17-78.72-25.17-78.72 33.33 1.41 64.89 48.22 64.89 48.22 0 0 28.02-10.63 65.96-6.02l-0.02-42.9c-33.67-2.14-56.72 4.24-56.72 4.24 0 0-29.79-39.71-108-52.82-0.39-0.06-6.02 32.27-7.44 43.26zm190.25 124.12h290.96l-1.06-118.8-290.79-0.17zm0.36 49.82l89.54-0.89v18.44l-89.54 0.54 0.17 27.83h55.68v21.28h-54.97v221.63h120.57l0.89-156.38 124.11-0.53-0.88-114.37h-118.8v-46.1h-127.48z"/>
		<g id="Layer 1">
		</g>
	</g>
</svg>