<svg version="1.2" xmlns="http://www.w3.org/2000/svg" viewBox="0 0 512 512" width="512" height="512">
	<title>RedLogoGit</title>
	<style>
		.s0 { fill: #ff0000 } 
	</style>
	<path id="Path 1" fill-rule="evenodd" class="s0" d="m30.79 45.42c-1.6 11.88-1.78 42.73 3.19 56.73l5.32 15.08c-17.02 32.97-24.47 50.17-27.48 59.39-3.2 9.22-6.56 21.28-7.63 26.6-1.06 5.32-1.77 19.68-1.77 31.91 0 12.77 1.24 28.55 3.01 37.24 1.6 8.33 4.97 21.1 7.63 28.37 2.48 7.27 8.15 19.68 12.59 27.3 4.43 7.63 13.12 19.51 19.5 26.42 6.38 6.74 16.31 15.78 22.16 20.04 5.85 4.08 17.38 10.81 25.71 14.72 8.34 3.9 23.58 9.39 34.05 12.05l18.97 4.97c-5.14 8.15-7.98 15.42-9.4 21.27-1.6 5.85-2.84 13.3-2.84 16.32v5.85c-18.79 0-27.48-1.42-34.93-4.08-8.33-2.84-15.24-6.92-23.93-14.19-6.56-5.49-16.31-12.76-21.46-16.13-4.96-3.19-14-7.63-19.86-9.75-5.85-2.31-14.71-4.79-19.5-5.68-7.09-1.24-9.57-1.06-12.06 1.07-2.48 2.3-2.66 3.37-0.88 7.27 1.24 2.48 7.09 7.62 12.94 11.34 5.85 3.91 13.48 9.93 17.02 13.66 3.55 3.72 9.58 13.12 13.3 20.74 3.9 7.8 10.46 18.09 14.89 22.87 4.44 4.97 11.17 11 15.08 13.66 3.9 2.83 13.12 6.91 20.39 9.39 7.27 2.49 21.1 5.32 30.49 6.39 11 1.24 21.81 2.3 47.17 1.95l30.49-0.53v-135.11c-37.59-0.36-52.66-1.77-61.17-3.55-7.8-1.59-19.86-5.14-26.59-7.8-6.92-2.84-16.85-7.8-22.17-11.17-5.32-3.55-14.36-10.99-20.03-16.67-5.85-5.85-13.48-15.6-17.38-21.98-3.72-6.39-8.86-17.56-11.35-24.83-2.48-7.27-5.32-19.68-6.2-27.48-1.07-7.8-1.78-20.03-1.78-26.95 0-7.09 0.89-19.15 1.95-26.6 1.07-7.62 4.26-21.09 7.1-29.78 3.01-8.69 8.33-21.1 11.88-27.49 3.54-6.38 9.75-15.78 14-20.74l7.63-9.4c-6.56-7.62-9.93-12.59-11.53-15.96-1.77-3.36-4.25-9.75-5.49-14.18-1.42-4.43-3.19-15.96-2.84-23.76 0.35-15.43 2.13-28.55 2.13-28.55 17.2 6.21 29.25 12.77 36.17 16.85 6.74 4.08 20.39 15.25 30.14 23.4 9.57 8.16 19.86 18.97 19.86 18.97 0 0 23.94-9.39 29.79-10.99 9.57-2.3 17.02-3.01 20.03-3.01h5.85v-30.14c-15.78 1.77-25.17 3.9-31.03 5.49-8.33 2.48-17.02 5.85-17.02 5.85 0 0-3.19-4.08-12.41-11.52-7.09-5.85-17.37-13.65-24.64-18.44-7.27-4.61-20.22-11.7-28.91-15.43-8.51-3.72-18.44-7.09-26.24-9.04-7.8-1.95-23.05-5.67-24.47-5.5-0.35 0.18-6.02 32.27-7.44 43.27zm190.25 124.11h290.96l-1.06-118.79-290.79-0.18zm0.36 49.82l89.54-0.89v18.44l-89.54 0.54 0.17 27.83h55.68v21.28h-54.97v221.64h120.57l0.89-156.39 124.11-0.53-0.88-114.37h-118.8v-46.1h-127.48z"/>
</svg>