<svg version="1.2" xmlns="http://www.w3.org/2000/svg" viewBox="0 0 512 512" width="512" height="512">
	<title>FinalV1</title>
	<style>
		.s0 { fill: #000000 } 
		.s1 { fill: #ff0000 } 
	</style>
	<path id="Path 0" fill-rule="evenodd" class="s0" d="m0 256v256h512v-512h-512z"/>
	<path id="Path 1" fill-rule="evenodd" class="s1" d="m131.9 130c-0.9 6.7-1 24.1 1.8 32l3 8.5c-9.6 18.6-13.8 28.3-15.5 33.5-1.8 5.2-3.7 12-4.3 15-0.6 3-1 11.1-1 18 0 7.2 0.7 16.1 1.7 21 0.9 4.7 2.8 11.9 4.3 16 1.4 4.1 4.6 11.1 7.1 15.4 2.5 4.3 7.4 11 11 14.9 3.6 3.8 9.2 8.9 12.5 11.3 3.3 2.3 9.8 6.1 14.5 8.3 4.7 2.2 13.3 5.3 19.2 6.8l10.7 2.8c-2.9 4.6-4.5 8.7-5.3 12-0.9 3.3-1.6 7.5-1.6 9.2v3.3c-10.6 0-15.5-0.8-19.7-2.3-4.7-1.6-8.6-3.9-13.5-8-3.7-3.1-9.2-7.2-12.1-9.1-2.8-1.8-7.9-4.3-11.2-5.5-3.3-1.3-8.3-2.7-11-3.2-4-0.7-5.4-0.6-6.8 0.6-1.4 1.3-1.5 1.9-0.5 4.1 0.7 1.4 4 4.3 7.3 6.4 3.3 2.2 7.6 5.6 9.6 7.7 2 2.1 5.4 7.4 7.5 11.7 2.2 4.4 5.9 10.2 8.4 12.9 2.5 2.8 6.3 6.2 8.5 7.7 2.2 1.6 7.4 3.9 11.5 5.3 4.1 1.4 11.9 3 17.2 3.6 6.2 0.7 12.3 1.3 26.6 1.1l17.2-0.3v-76.2c-21.2-0.2-29.7-1-34.5-2-4.4-0.9-11.2-2.9-15-4.4-3.9-1.6-9.5-4.4-12.5-6.3-3-2-8.1-6.2-11.3-9.4-3.3-3.3-7.6-8.8-9.8-12.4-2.1-3.6-5-9.9-6.4-14-1.4-4.1-3-11.1-3.5-15.5-0.6-4.4-1-11.3-1-15.2 0-4 0.5-10.8 1.1-15 0.6-4.3 2.4-11.9 4-16.8 1.7-4.9 4.7-11.9 6.7-15.5 2-3.6 5.5-8.9 7.9-11.7l4.3-5.3c-3.7-4.3-5.6-7.1-6.5-9-1-1.9-2.4-5.5-3.1-8-0.8-2.5-1.8-9-1.6-13.4 0.2-8.7 1.2-16.1 1.2-16.1 9.7 3.5 16.5 7.2 20.4 9.5 3.8 2.3 11.5 8.6 17 13.2 5.4 4.6 11.2 10.7 11.2 10.7 0 0 13.5-5.3 16.8-6.2 5.4-1.3 9.6-1.7 11.3-1.7h3.3v-17c-8.9 1-14.2 2.2-17.5 3.1-4.7 1.4-9.6 3.3-9.6 3.3 0 0-1.8-2.3-7-6.5-4-3.3-9.8-7.7-13.9-10.4-4.1-2.6-11.4-6.6-16.3-8.7-4.8-2.1-10.4-4-14.8-5.1-4.4-1.1-13-3.2-13.8-3.1-0.2 0.1-3.4 18.2-4.2 24.4zm107.3 70h164.1l-0.6-67-164-0.1zm0.2 28.1l50.5-0.5v10.4l-50.5 0.3 0.1 15.7h31.4v12h-31v125h68l0.5-88.2 70-0.3-0.5-64.5h-67v-26h-71.9z"/>
	<g id="Layer 1">
	</g>
</svg>